<?xml version="1.0" encoding="utf-8"?>
<!-- Generator: Adobe Illustrator 27.9.0, SVG Export Plug-In . SVG Version: 6.00 Build 0)  -->
<svg version="1.1" id="_Шар_2" xmlns="http://www.w3.org/2000/svg" xmlns:xlink="http://www.w3.org/1999/xlink" x="0px" y="0px"
	 viewBox="0 0 245.8 245.8" style="enable-background:new 0 0 245.8 245.8;" xml:space="preserve">
<style type="text/css">
	.st0{fill:#F59C3E;}
</style>
<g id="_Шар_1-2">
	<g>
		<path class="st0" d="M120.5,187.2c-34-0.4-63.2-30.3-62-66c1.1-35.8,30.7-63.3,67.1-62.3c34.4,1,62.4,30.8,61.5,65.7
			C186,160.7,156.9,188.1,120.5,187.2L120.5,187.2z"/>
		<path class="st0" d="M163.4,62.9c2.3-3.5,4.8-7.2,7.3-10.9c4.4-6.6,8.8-13.2,13.2-19.8c3.8-5.6,10.8-8.3,16.5-5.5
			c2.3,1.1,5.1,4,5.3,6.2c0.2,2.3-2.2,5.3-4.3,7c-1.7,1.4-4.7,2-7,1.7c-4.4-0.5-6.8,1.2-8.6,4.8c-0.7,1.5-1.9,2.8-2.8,4.1
			c-6.4,9.5-6.1,11.2,2.6,19.1c2.6,2.3,4.8,2.7,6.9-0.4c2.6-3.7,5.4-7.1,7.7-10.9c3.6-5.8,12.1-8.7,17.7-5.1c2,1.2,4.2,4,4.1,6.1
			c-0.1,2.3-2.2,4.9-4.1,6.8c-1.1,1.1-3.5,1.9-5.1,1.6c-7.9-1.5-10.5,4.3-13.6,9.5c-0.6,1-1,2-1.7,3c-2.9,4-5.9,7.9-9,12.1
			c-5.4-8.5-7-10.8-11.1-15.5C173.5,72,168.6,67.9,163.4,62.9L163.4,62.9z"/>
		<path class="st0" d="M91.8,57.9c-11.9,5.6-21.4,13.7-28.7,24.9C53,76,41.7,68.7,30.8,60.9c-4.5-3.2-5.6-12.5-2.7-17.1
			c2.2-3.5,8.5-4.3,10.8-0.8c2,3,3.3,6.9,3.5,10.5c0.2,3.3,1,5,3.8,6.7c4.1,2.2,7.7,5.2,11.7,7.7c1,0.6,3.1,1,3.9,0.4
			c4.4-3.2,8.6-6.7,13.7-10.8c-5.9-4-11-7.6-16.3-11c-5.3-3.4-7-8.3-6.3-14.2c0.5-4.1,2.5-7.5,7-7.9c4.4-0.4,6.5,2.7,7.9,6.4
			c0.5,1.4,0.7,2.9,0.7,4.4c-0.1,3.9,0.7,5.9,4.8,9C79.7,49.6,85.9,54.3,91.8,57.9L91.8,57.9z"/>
		<path class="st0" d="M203.6,136.2c7.3-1.4,13.8-2.7,20.2-4.1c6-1.3,13.9,3,15.1,9c0.5,2.4-0.7,6.5-1.8,7.6
			c-2.2,2.4-5.1,2.7-8.2,1.5c-1.1-0.3-3.6-1.7-4.3-2.8c-3.2-5.5-7.8-4.7-12.9-3.5c-6.6,1.5-14.5,2.1-21.2,3.4c-0.3,0.1,0.6,0.2,0,0
			c1.2-5,2.9-11.3,3.2-16.2c0.5-6.6,0.7-7.4,0.4-14c-0.1-2.7-0.8-7.3-0.7-7.5c0,0,0.7-0.1,0.7-0.1c11-2.1,24.4-5.3,35.4-7.4
			c7.2-1.4,12.9,0.9,15.5,6.9c1.1,2.5,1.2,6.7-0.3,8.6c-1.4,1.8-5.4,1.9-8.3,2.2c-1.3,0.1-3.2-0.8-3.9-1.8
			c-4.5-6.6-10.7-4.5-16.7-3.4c-10.8,2.1-10.8,2.1-11.5,13.2C204.2,130.4,203.9,132.8,203.6,136.2L203.6,136.2z"/>
		<path class="st0" d="M182.6,162.7c5.2,3.5,9.8,7.1,15.3,10.8c5,3.3,9.9,6.7,14.9,10.1c5.6,3.9,7.9,9.3,5.6,15.5
			c-0.9,2.5-3.9,5.6-6.2,5.9c-2.3,0.2-6-2.2-7.3-4.5c-1.7-2.9-1.6-6.9-2.5-11.5c-3.9-2.9-8.9-6.6-13.8-10.4c-2.2-1.7-4-1.6-6.1,0.3
			c-3.8,3.4-7.8,6.5-12.2,10.1c6.1,4.1,11.6,7.7,17.1,11.5c5.6,3.9,7.4,11.6,4.3,17.3c-2.8,5.2-8.4,5.9-11.5,1
			c-1.8-2.9-2.8-6.8-2.7-10.2c0-2.8-0.5-4.2-2.7-5.6c-7.3-4.8-14.6-9.8-21.9-14.7c7.9-3.2,12.1-5.9,16.8-10
			C174,174.1,178.4,169.6,182.6,162.7L182.6,162.7z"/>
		<path class="st0" d="M147,55.9c-2.5-0.6-3.8-1.1-5-1.4c-9.9-2.9-19.6-3.7-29.8-1.9c-3.4,0.6-3.6,0.9-3.6,0.4
			c-2.2-11.8-5.8-27.1-8.1-38.9C99,6.4,107.3-1.6,114.9,0.3c1.4,0.3,3.1,2,3.6,3.4c1.9,5.3-0.4,9.6-4.4,12.7
			c-2.4,1.9-2.8,3.8-2.2,6.4c0.7,3.2,1.3,6.5,1.9,9.8c1.4,7.5,1.4,7.5,8.9,8.3c3.8,0.4,7.5,0.7,12.1,1.1c-1.3-6.8-2.5-13-3.7-19.3
			c-1.3-6.8,2.1-13.2,8.4-15.7c5.7-2.3,11.1,1.6,9.7,7.5c-0.8,3.2-2.7,6.5-5.1,8.8c-2.2,2.1-2.6,3.8-2.1,6.5
			C143.8,37.9,145.2,46.7,147,55.9L147,55.9z"/>
		<path class="st0" d="M109.7,202.9c1.3,6.8,2.5,12.8,3.8,18.8c1.2,5.8-0.4,10.6-4.7,14.4c-3.1,2.8-6.7,3.9-10.5,1.5
			c-4-2.6-3.4-6.5-2-10.3c0.5-1.4,1.3-3,2.4-3.7c4.8-3,4.4-7,3.3-11.7c-1.7-7.1-2.8-14.3-4.1-21c13.1,4.2,25.7,5.5,38.7,2.9
			c1.8,9,3.8,19.2,5.8,29.5c0.5,2.6,1.1,5.2,1.4,7.9c0.7,5.6-3.3,12-8.5,13.9c-6,2.2-10.8-1.3-9.7-7.5c0.5-2.9,2.2-6.2,4.4-8.1
			c3.1-2.6,3.4-5.2,2.5-8.6c-0.7-2.7-1.2-5.5-1.7-8.3c-1-5.4-4.2-8.3-9.5-8.6C117.8,203.7,114.2,203.3,109.7,202.9L109.7,202.9z"/>
		<path class="st0" d="M57.1,170.5c-4.1,6-7.8,11.5-11.6,16.9c-3.7,5.3-10,7.4-15.8,4.7c-2.4-1.1-5-3.9-5.3-6.3
			c-0.3-2,2.1-5.1,4.1-6.6c2-1.4,5.1-2.3,7.5-2c4.1,0.5,6-1.2,7.9-4.3c4.4-6.8,9-13.4,13.1-19.3c5.2,12,13.5,21.3,25.4,29.2
			c-1.8,2.7-4.3,6.5-6.8,10.3c-4.6,6.9-9.2,13.9-14,20.7c-3.7,5.2-11.5,7-17,4c-5.5-3-5.8-9.2-0.4-12.3c2.4-1.3,5.5-2.6,8-2.1
			c4.2,0.8,5.6-1.4,7.8-4.1c2.4-2.8,4-5.9,5.9-8.6c2.9-4.2,2.7-6.8-0.6-10.2C62.7,177.6,60.2,174.2,57.1,170.5L57.1,170.5z"/>
		<path class="st0" d="M42.8,110c-6.4,1.3-12.3,2.3-18,3.7c-6.7,1.6-11.9-0.2-16.1-5.5c-2.5-3.2-2.3-8.3,0.6-11
			c2.4-2.2,9.4-2.1,11.3,0.6c3.5,4.9,6.6,4.8,12.9,4.1c6.9-0.8,13.4-1.7,21.8-3.2c-4,12.9-5.5,24.7-1.7,37.9
			c-13.6,2.6-26.4,5.4-39.3,7.2C11,144.3,6.8,142.2,4,140c-4.9-3.7-5.1-9.1-1.6-13c2.8-3.1,9.7-3,12.6,1.4c3.6,5.4,10.9,4.9,16,3.6
			c6.5-1.6,6.7-0.7,8.8-3.2c2.3-2.7,1.7-8.1,2.3-12.4C42.5,114.5,42.6,112.6,42.8,110L42.8,110z"/>
	</g>
</g>
</svg>
